<svg width="21" height="22" viewBox="0 0 21 22" fill="none" xmlns="http://www.w3.org/2000/svg">
<g clip-path="url(#clip0_116_186)">
<path d="M10.5 0.444885C4.70106 0.444885 0 5.14595 0 10.9449C0 15.869 3.39024 20.0009 7.96362 21.1358V14.1537H5.79852V10.9449H7.96362V9.56225C7.96362 5.98847 9.58104 4.33199 13.0897 4.33199C13.755 4.33199 14.9029 4.46261 15.3724 4.59281V7.50131C15.1246 7.47527 14.6941 7.46225 14.1595 7.46225C12.4379 7.46225 11.7726 8.11451 11.7726 9.81005V10.9449H15.2023L14.6131 14.1537H11.7726V21.368C16.9718 20.7401 21.0004 16.3133 21.0004 10.9449C21 5.14595 16.2989 0.444885 10.5 0.444885Z" fill="white"/>
</g>
<defs>
<clipPath id="clip0_116_186">
<rect width="21" height="21" fill="white" transform="translate(0 0.444885)"/>
</clipPath>
</defs>
</svg>
