<svg width="21" height="22" viewBox="0 0 21 22" fill="none" xmlns="http://www.w3.org/2000/svg">
<g clip-path="url(#clip0_116_183)">
<path fill-rule="evenodd" clip-rule="evenodd" d="M10.5087 0.444885C4.69766 0.444885 0 5.17717 0 11.0317C0 15.7115 3.00995 19.6728 7.18555 21.0749C7.7076 21.1803 7.89883 20.8471 7.89883 20.5668C7.89883 20.3214 7.88162 19.4801 7.88162 18.6035C4.95836 19.2346 4.34962 17.3415 4.34962 17.3415C3.87983 16.1146 3.18375 15.7992 3.18375 15.7992C2.22697 15.1507 3.25345 15.1507 3.25345 15.1507C4.31477 15.2208 4.87167 16.2374 4.87167 16.2374C5.81103 17.8498 7.32472 17.3942 7.93368 17.1137C8.02058 16.4301 8.29914 15.9569 8.59491 15.694C6.2634 15.4486 3.81035 14.5372 3.81035 10.4707C3.81035 9.31384 4.22765 8.36738 4.88888 7.63129C4.78456 7.36844 4.4191 6.28152 4.99342 4.82677C4.99342 4.82677 5.88073 4.54627 7.88141 5.91347C8.73797 5.68173 9.62133 5.56385 10.5087 5.56285C11.396 5.56285 12.3005 5.68568 13.1358 5.91347C15.1366 4.54627 16.024 4.82677 16.024 4.82677C16.5983 6.28152 16.2326 7.36844 16.1283 7.63129C16.8069 8.36738 17.207 9.31384 17.207 10.4707C17.207 14.5372 14.754 15.431 12.405 15.694C12.7879 16.027 13.1183 16.6579 13.1183 17.6571C13.1183 19.0768 13.1011 20.2162 13.1011 20.5666C13.1011 20.8471 13.2926 21.1803 13.8144 21.0751C17.99 19.6726 21 15.7115 21 11.0317C21.0172 5.17717 16.3023 0.444885 10.5087 0.444885Z" fill="white"/>
</g>
<defs>
<clipPath id="clip0_116_183">
<rect width="21" height="21" fill="white" transform="translate(0 0.444885)"/>
</clipPath>
</defs>
</svg>
