<svg width="431" height="332" viewBox="0 0 431 332" fill="none" xmlns="http://www.w3.org/2000/svg">
<rect x="10.3261" y="8.19519" width="168.034" height="165.725" rx="10" fill="#F16529"/>
<rect x="10.3261" y="8.19519" width="168.034" height="165.725" rx="10" stroke="#C5C5C5"/>
<path d="M64.7726 54.5983H93.9355V34.6019H42.2432L42.7364 39.9665L47.8034 95.0713H93.9355V75.0749H66.6567L64.7726 54.5983ZM69.4187 105.07H48.7245L51.6124 136.467L93.8406 147.837L93.9355 147.812V127.008L93.8451 127.031L70.8866 121.018L69.4187 105.07Z" fill="#EBEBEB"/>
<path d="M93.8645 95.0713H119.249L116.856 121.005L93.8638 127.025V147.828L136.126 136.467L136.435 133.089L141.28 80.4445L141.783 75.0749H93.8645V95.0713ZM93.8645 54.5495V54.5983H143.659L144.072 50.104L145.012 39.9665L145.504 34.6019H93.8645V54.5501V54.5495Z" fill="white"/>
<rect x="234.867" y="40.7316" width="75.0991" height="75.0991" rx="10" fill="#2965F1"/>
<rect x="234.867" y="40.7316" width="75.0991" height="75.0991" rx="10" stroke="#C5C5C5"/>
<path d="M252.519 72.7266L253.275 80.4966H272.147V72.7266H252.519ZM251 57L251.767 64.77H272.147V57H251ZM272.147 92.9062L272.11 92.9152L262.718 90.5786L262.117 84.3817H253.651L254.833 96.5818L272.108 101L272.147 100.99V92.9062Z" fill="#EBEBEB"/>
<path d="M252.519 72.7266L253.275 80.4966H272.147V72.7266H252.519ZM251 57L251.767 64.77H272.147V57H251ZM272.147 92.9062L272.11 92.9152L262.718 90.5786L262.117 84.3817H253.651L254.833 96.5818L272.108 101L272.147 100.99V92.9062Z" stroke="#C5C5C5"/>
<path d="M291.721 72.7266L293.243 57H272.118V64.77H284.001L283.234 72.7266H272.118V80.4966H282.503L281.523 90.5737L272.117 92.9127V100.996L289.406 96.5818L289.533 95.269L291.515 74.8131L291.721 72.7266Z" fill="white"/>
<path d="M291.721 72.7266L293.243 57H272.118V64.77H284.001L283.234 72.7266H272.118V80.4966H282.503L281.523 90.5737L272.117 92.9127V100.996L289.406 96.5818L289.533 95.269L291.515 74.8131L291.721 72.7266Z" stroke="#C5C5C5"/>
<rect x="327.802" y="40.7316" width="75.0991" height="75.0991" rx="10" fill="#777BB3"/>
<rect x="327.802" y="40.7316" width="75.0991" height="75.0991" rx="10" stroke="#C5C5C5"/>
<path d="M348.787 83.4252C350.322 83.4252 351.468 83.0461 352.193 82.2988C352.911 81.5592 353.406 80.2778 353.666 78.4904C353.908 76.8196 353.816 75.653 353.392 75.0235C352.958 74.3805 352.021 74.0544 350.606 74.0544H348.153L346.793 83.4252H348.787ZM340.763 94.9683C340.649 94.9683 340.541 94.9002 340.469 94.7823C340.396 94.6645 340.367 94.5095 340.389 94.3597L343.993 69.5269C344.028 69.2869 344.185 69.1134 344.368 69.1134H352.136C354.577 69.1134 356.394 70.0011 357.537 71.7521C358.685 73.5122 359.04 75.9727 358.591 79.0649C358.408 80.3247 358.094 81.4946 357.657 82.5421C357.219 83.5908 356.641 84.5611 355.937 85.4266C355.096 86.4816 354.143 87.2466 353.108 87.6967C352.09 88.1409 350.782 88.3662 349.222 88.3662H346.076L345.178 94.5546C345.143 94.7949 344.986 94.9683 344.803 94.9683H340.763Z" fill="black"/>
<path d="M348.787 83.4252C350.322 83.4252 351.468 83.0461 352.193 82.2988C352.911 81.5592 353.406 80.2778 353.666 78.4904C353.908 76.8196 353.816 75.653 353.392 75.0235C352.958 74.3805 352.021 74.0544 350.606 74.0544H348.153L346.793 83.4252H348.787ZM340.763 94.9683C340.649 94.9683 340.541 94.9002 340.469 94.7823C340.396 94.6645 340.367 94.5095 340.389 94.3597L343.993 69.5269C344.028 69.2869 344.185 69.1134 344.368 69.1134H352.136C354.577 69.1134 356.394 70.0011 357.537 71.7521C358.685 73.5122 359.04 75.9727 358.591 79.0649C358.408 80.3247 358.094 81.4946 357.657 82.5421C357.219 83.5908 356.641 84.5611 355.937 85.4266C355.096 86.4816 354.143 87.2466 353.108 87.6967C352.09 88.1409 350.782 88.3662 349.222 88.3662H346.076L345.178 94.5546C345.143 94.7949 344.986 94.9683 344.803 94.9683H340.763Z" stroke="#C5C5C5"/>
<path d="M348.468 74.5656H350.606C352.314 74.5656 352.907 75.0673 353.109 75.3663C353.443 75.8628 353.506 76.9096 353.291 78.3934C353.05 80.0546 352.602 81.2325 351.961 81.8939C351.304 82.571 350.236 82.9141 348.787 82.9141H347.256L348.468 74.5656ZM352.136 68.6023H344.368C344.002 68.6023 343.688 68.9492 343.618 69.4295L340.014 94.2623C339.971 94.562 340.029 94.8719 340.174 95.1076C340.319 95.3432 340.535 95.4795 340.763 95.4795H344.803C345.169 95.4795 345.483 95.1326 345.552 94.6523L346.391 88.8773H349.222C350.822 88.8773 352.17 88.6436 353.227 88.1827C354.313 87.7099 355.313 86.9083 356.198 85.8001C356.93 84.8985 357.533 83.8864 357.99 82.7918C358.447 81.6967 358.775 80.4756 358.965 79.1624C359.438 75.9075 359.054 73.301 357.824 71.416C356.606 69.5489 354.692 68.6023 352.136 68.6023ZM346.33 83.9364H348.787C350.416 83.9364 351.629 83.5256 352.426 82.7038C353.223 81.8819 353.761 80.5102 354.041 78.588C354.308 76.7425 354.186 75.4401 353.675 74.6814C353.164 73.9227 352.141 73.5433 350.606 73.5433H347.838L346.33 83.9364ZM352.136 69.6246C354.473 69.6246 356.178 70.4458 357.249 72.0884C358.321 73.731 358.643 76.0238 358.216 78.9675C358.04 80.18 357.742 81.2887 357.323 82.2931C356.904 83.2981 356.356 84.2171 355.679 85.0505C354.873 86.0613 353.976 86.7817 352.99 87.2107C352.004 87.6409 350.748 87.8551 349.222 87.8551H345.761L344.803 94.4572H340.763L344.368 69.6246H352.136Z" fill="white"/>
<path d="M367.853 88.3662C367.739 88.3662 367.631 88.2981 367.559 88.1802C367.486 88.0624 367.457 87.9076 367.478 87.7576L369.073 76.7701C369.224 75.7252 369.187 74.9752 368.968 74.6583C368.833 74.4645 368.43 74.1396 367.236 74.1396H364.348L362.343 87.9525C362.308 88.1928 362.151 88.3662 361.968 88.3662H357.961C357.847 88.3662 357.739 88.2981 357.666 88.1802C357.594 88.0624 357.564 87.9074 357.586 87.7576L361.19 62.9248C361.225 62.6848 361.382 62.5113 361.565 62.5113H365.573C365.687 62.5113 365.795 62.5795 365.867 62.6972C365.94 62.8151 365.969 62.97 365.947 63.1199L365.078 69.1135H368.185C370.552 69.1135 372.157 69.6723 373.092 70.822C374.045 71.9949 374.343 73.8703 373.976 76.3966L372.299 87.9525C372.264 88.1928 372.107 88.3662 371.925 88.3662H367.853Z" fill="black"/>
<path d="M367.853 88.3662C367.739 88.3662 367.631 88.2981 367.559 88.1802C367.486 88.0624 367.457 87.9076 367.478 87.7576L369.073 76.7701C369.224 75.7252 369.187 74.9752 368.968 74.6583C368.833 74.4645 368.43 74.1396 367.236 74.1396H364.348L362.343 87.9525C362.308 88.1928 362.151 88.3662 361.968 88.3662H357.961C357.847 88.3662 357.739 88.2981 357.666 88.1802C357.594 88.0624 357.564 87.9074 357.586 87.7576L361.19 62.9248C361.225 62.6848 361.382 62.5113 361.565 62.5113H365.573C365.687 62.5113 365.795 62.5795 365.867 62.6972C365.94 62.8151 365.969 62.97 365.947 63.1199L365.078 69.1135H368.185C370.552 69.1135 372.157 69.6723 373.092 70.822C374.045 71.9949 374.343 73.8703 373.976 76.3966L372.299 87.9525C372.264 88.1928 372.107 88.3662 371.925 88.3662H367.853Z" stroke="#C5C5C5"/>
<path d="M365.573 62.0001H361.565C361.199 62.0001 360.885 62.347 360.815 62.8273L357.211 87.6601C357.168 87.9598 357.226 88.2697 357.371 88.5053C357.517 88.741 357.733 88.8773 357.961 88.8773H361.968C362.334 88.8773 362.648 88.5304 362.718 88.0501L364.662 74.6507H367.236C368.428 74.6507 368.678 74.9914 368.688 75.0061C368.76 75.1102 368.855 75.5924 368.698 76.6726L367.104 87.6601C367.06 87.9598 367.119 88.2697 367.264 88.5053C367.409 88.741 367.625 88.8773 367.853 88.8773H371.925C372.29 88.8773 372.604 88.5304 372.674 88.0501L374.351 76.4942C374.744 73.7816 374.408 71.7467 373.351 70.4457C372.342 69.2052 370.652 68.6022 368.185 68.6022H365.541L366.322 63.2174C366.366 62.9177 366.307 62.6077 366.162 62.3722C366.017 62.1366 365.801 62.0001 365.573 62.0001ZM365.573 63.0224L364.615 69.6245H368.185C370.432 69.6245 371.981 70.1496 372.834 71.1985C373.687 72.248 373.942 73.9485 373.602 76.2993L371.925 87.855H367.853L369.447 76.8676C369.629 75.6177 369.562 74.7652 369.247 74.3106C368.932 73.856 368.262 73.6284 367.236 73.6284H364.033L361.968 87.855H357.961L361.565 63.0224H365.573Z" fill="white"/>
<path d="M365.573 62.0001H361.565C361.199 62.0001 360.885 62.347 360.815 62.8273L357.211 87.6601C357.168 87.9598 357.226 88.2697 357.371 88.5053C357.517 88.741 357.733 88.8773 357.961 88.8773H361.968C362.334 88.8773 362.648 88.5304 362.718 88.0501L364.662 74.6507H367.236C368.428 74.6507 368.678 74.9914 368.688 75.0061C368.76 75.1102 368.855 75.5924 368.698 76.6726L367.104 87.6601C367.06 87.9598 367.119 88.2697 367.264 88.5053C367.409 88.741 367.625 88.8773 367.853 88.8773H371.925C372.29 88.8773 372.604 88.5304 372.674 88.0501L374.351 76.4942C374.744 73.7816 374.408 71.7467 373.351 70.4457C372.342 69.2052 370.652 68.6022 368.185 68.6022H365.541L366.322 63.2174C366.366 62.9177 366.307 62.6077 366.162 62.3722C366.017 62.1366 365.801 62.0001 365.573 62.0001ZM365.573 63.0224L364.615 69.6245H368.185C370.432 69.6245 371.981 70.1496 372.834 71.1985C373.687 72.248 373.942 73.9485 373.602 76.2993L371.925 87.855H367.853L369.447 76.8676C369.629 75.6177 369.562 74.7652 369.247 74.3106C368.932 73.856 368.262 73.6284 367.236 73.6284H364.033L361.968 87.855H357.961L361.565 63.0224H365.573Z" stroke="#C5C5C5"/>
<path d="M380.318 83.4252C381.853 83.4252 382.999 83.0461 383.724 82.2988C384.441 81.5594 384.937 80.278 385.197 78.4904C385.439 76.8196 385.347 75.653 384.923 75.0235C384.489 74.3805 383.552 74.0544 382.137 74.0544H379.684L378.324 83.4252H380.318ZM372.294 94.9683C372.18 94.9683 372.072 94.9002 372 94.7823C371.927 94.6645 371.898 94.5095 371.919 94.3597L375.524 69.5269C375.559 69.2869 375.716 69.1134 375.899 69.1134H383.667C386.108 69.1134 387.925 70.0011 389.068 71.7521C390.216 73.5121 390.57 75.9725 390.121 79.0649C389.938 80.3247 389.624 81.4946 389.187 82.5421C388.75 83.5908 388.171 84.5611 387.468 85.4266C386.626 86.4816 385.674 87.2466 384.639 87.6967C383.621 88.1409 382.313 88.3662 380.752 88.3662H377.607L376.709 94.5546C376.674 94.7949 376.517 94.9683 376.334 94.9683H372.294Z" fill="black"/>
<path d="M380.318 83.4252C381.853 83.4252 382.999 83.0461 383.724 82.2988C384.441 81.5594 384.937 80.278 385.197 78.4904C385.439 76.8196 385.347 75.653 384.923 75.0235C384.489 74.3805 383.552 74.0544 382.137 74.0544H379.684L378.324 83.4252H380.318ZM372.294 94.9683C372.18 94.9683 372.072 94.9002 372 94.7823C371.927 94.6645 371.898 94.5095 371.919 94.3597L375.524 69.5269C375.559 69.2869 375.716 69.1134 375.899 69.1134H383.667C386.108 69.1134 387.925 70.0011 389.068 71.7521C390.216 73.5121 390.57 75.9725 390.121 79.0649C389.938 80.3247 389.624 81.4946 389.187 82.5421C388.75 83.5908 388.171 84.5611 387.468 85.4266C386.626 86.4816 385.674 87.2466 384.639 87.6967C383.621 88.1409 382.313 88.3662 380.752 88.3662H377.607L376.709 94.5546C376.674 94.7949 376.517 94.9683 376.334 94.9683H372.294Z" stroke="#C5C5C5"/>
<path d="M379.998 74.5655H382.137C383.845 74.5655 384.438 75.0673 384.639 75.3663C384.974 75.8628 385.037 76.9096 384.822 78.3932C384.58 80.0546 384.133 81.2324 383.491 81.8938C382.834 82.5709 381.767 82.914 380.318 82.914H378.787L379.998 74.5655ZM383.667 68.6023H375.899C375.533 68.6023 375.219 68.9492 375.149 69.4294L371.545 94.2622C371.501 94.5619 371.56 94.8719 371.705 95.1075C371.85 95.3431 372.066 95.4794 372.294 95.4794H376.334C376.699 95.4794 377.014 95.1325 377.083 94.6522L377.921 88.8773H380.752C382.353 88.8773 383.701 88.6435 384.758 88.1826C385.844 87.7098 386.844 86.908 387.729 85.7997C388.461 84.8983 389.064 83.8864 389.52 82.7917C389.977 81.6967 390.306 80.4756 390.496 79.1623C390.969 75.9072 390.585 73.3008 389.355 71.4157C388.137 69.5489 386.223 68.6023 383.667 68.6023ZM377.861 83.9363H380.318C381.947 83.9363 383.16 83.5255 383.957 82.7038C384.754 81.8819 385.292 80.5102 385.571 78.588C385.839 76.7424 385.717 75.4401 385.206 74.6814C384.695 73.9227 383.672 73.5432 382.137 73.5432H379.369L377.861 83.9363ZM383.667 69.6245C386.004 69.6245 387.708 70.4458 388.78 72.0884C389.852 73.731 390.174 76.0238 389.747 78.9674C389.571 80.18 389.273 81.2886 388.854 82.293C388.435 83.2981 387.887 84.2171 387.21 85.0504C386.403 86.0613 385.507 86.7816 384.521 87.2106C383.535 87.6408 382.279 87.855 380.752 87.855H377.292L376.334 94.4572H372.294L375.899 69.6245H383.667Z" fill="white"/>
<rect x="48.9964" y="231.296" width="75.0991" height="75.0991" rx="10" fill="#F7DF1E"/>
<rect x="48.9964" y="231.296" width="75.0991" height="75.0991" rx="10" stroke="#C5C5C5"/>
<path d="M100.509 291.394C101.915 293.643 103.744 295.297 106.979 295.297C109.697 295.297 111.433 293.966 111.433 292.127C111.433 289.923 109.65 289.143 106.658 287.861L105.018 287.172C100.285 285.196 97.1411 282.721 97.1411 277.489C97.1411 272.669 100.889 269 106.747 269C110.917 269 113.915 270.422 116.076 274.145L110.968 277.358C109.843 275.383 108.63 274.605 106.747 274.605C104.826 274.605 103.608 275.799 103.608 277.358C103.608 279.286 104.827 280.067 107.641 281.261L109.281 281.949C114.853 284.291 118 286.678 118 292.044C118 297.83 113.361 301 107.131 301C101.04 301 97.1045 298.156 95.1789 294.428L100.509 291.394ZM77.3391 291.951C78.3695 293.742 79.3068 295.257 81.5603 295.257C83.7152 295.257 85.0746 294.43 85.0746 291.218V269.367H91.6336V291.305C91.6336 297.959 87.6517 300.988 81.8395 300.988C76.5879 300.988 73.5467 298.325 72 295.118L77.3391 291.951Z" fill="black"/>
<path d="M100.509 291.394C101.915 293.643 103.744 295.297 106.979 295.297C109.697 295.297 111.433 293.966 111.433 292.127C111.433 289.923 109.65 289.143 106.658 287.861L105.018 287.172C100.285 285.196 97.1411 282.721 97.1411 277.489C97.1411 272.669 100.889 269 106.747 269C110.917 269 113.915 270.422 116.076 274.145L110.968 277.358C109.843 275.383 108.63 274.605 106.747 274.605C104.826 274.605 103.608 275.799 103.608 277.358C103.608 279.286 104.827 280.067 107.641 281.261L109.281 281.949C114.853 284.291 118 286.678 118 292.044C118 297.83 113.361 301 107.131 301C101.04 301 97.1045 298.156 95.1789 294.428L100.509 291.394ZM77.3391 291.951C78.3695 293.742 79.3068 295.257 81.5603 295.257C83.7152 295.257 85.0746 294.43 85.0746 291.218V269.367H91.6336V291.305C91.6336 297.959 87.6517 300.988 81.8395 300.988C76.5879 300.988 73.5467 298.325 72 295.118L77.3391 291.951Z" stroke="#C5C5C5"/>
<rect x="262" y="162" width="168.034" height="169.912" rx="10" fill="#EDEDED"/>
<rect x="262" y="162" width="168.034" height="169.912" rx="10" stroke="#C5C5C5"/>
<path d="M332.528 279.789C332.528 279.789 327.616 282.369 336.023 283.242C346.207 284.292 351.413 284.141 362.636 282.222C362.636 282.222 365.587 283.894 369.708 285.341C344.548 295.082 312.766 284.777 332.528 279.789Z" fill="#5382A1"/>
<path d="M332.528 279.789C332.528 279.789 327.616 282.369 336.023 283.242C346.207 284.292 351.413 284.141 362.636 282.222C362.636 282.222 365.587 283.894 369.708 285.341C344.548 295.082 312.766 284.777 332.528 279.789Z" stroke="#C5C5C5"/>
<path d="M329.453 267.077C329.453 267.077 323.945 270.761 332.358 271.547C343.237 272.561 351.829 272.644 366.696 270.058C366.696 270.058 368.752 271.941 371.985 272.971C341.566 281.006 307.684 273.605 329.453 267.077Z" fill="#5382A1"/>
<path d="M329.453 267.077C329.453 267.077 323.945 270.761 332.358 271.547C343.237 272.561 351.829 272.644 366.696 270.058C366.696 270.058 368.752 271.941 371.985 272.971C341.566 281.006 307.684 273.605 329.453 267.077Z" stroke="#C5C5C5"/>
<path d="M355.371 245.515C361.571 251.962 353.743 257.764 353.743 257.764C353.743 257.764 369.484 250.424 362.255 241.231C361.965 240.863 361.677 240.503 361.396 240.149C355.119 232.273 351.529 227.768 378.355 213.714C378.355 213.714 334.357 223.64 355.371 245.515Z" fill="#E76F00"/>
<path d="M355.371 245.515C361.571 251.962 353.743 257.764 353.743 257.764C353.743 257.764 369.484 250.424 362.255 241.231C361.965 240.863 361.677 240.503 361.396 240.149C355.119 232.273 351.529 227.768 378.355 213.714C378.355 213.714 334.357 223.64 355.371 245.515Z" stroke="#C5C5C5"/>
<path d="M388.647 289.191C388.647 289.191 392.282 291.896 384.644 293.989C370.122 297.963 324.2 299.163 311.443 294.147C306.857 292.345 315.457 289.844 318.162 289.319C320.983 288.767 322.595 288.87 322.595 288.87C317.496 285.624 289.632 295.242 308.442 297.997C359.74 305.512 401.953 294.613 388.647 289.191Z" fill="#5382A1"/>
<path d="M388.647 289.191C388.647 289.191 392.282 291.896 384.644 293.989C370.122 297.963 324.2 299.163 311.443 294.147C306.857 292.345 315.457 289.844 318.162 289.319C320.983 288.767 322.595 288.87 322.595 288.87C317.496 285.624 289.632 295.242 308.442 297.997C359.74 305.512 401.953 294.613 388.647 289.191Z" stroke="#C5C5C5"/>
<path d="M334.89 253.907C334.89 253.907 311.531 258.919 326.618 260.739C332.988 261.51 345.686 261.335 357.515 260.44C367.182 259.703 376.889 258.137 376.889 258.137C376.889 258.137 373.48 259.456 371.014 260.977C347.293 266.613 301.47 263.991 314.662 258.226C325.818 253.354 334.89 253.907 334.89 253.907Z" fill="#5382A1"/>
<path d="M334.89 253.907C334.89 253.907 311.531 258.919 326.618 260.739C332.988 261.51 345.686 261.335 357.515 260.44C367.182 259.703 376.889 258.137 376.889 258.137C376.889 258.137 373.48 259.456 371.014 260.977C347.293 266.613 301.47 263.991 314.662 258.226C325.818 253.354 334.89 253.907 334.89 253.907Z" stroke="#C5C5C5"/>
<path d="M376.792 275.066C400.905 263.747 389.756 252.869 381.975 254.334C380.067 254.693 379.217 255.004 379.217 255.004C379.217 255.004 379.925 254.002 381.277 253.568C396.672 248.679 408.512 267.988 376.308 275.636C376.308 275.636 376.681 275.335 376.792 275.066Z" fill="#5382A1"/>
<path d="M376.792 275.066C400.905 263.747 389.756 252.869 381.975 254.334C380.067 254.693 379.217 255.004 379.217 255.004C379.217 255.004 379.925 254.002 381.277 253.568C396.672 248.679 408.512 267.988 376.308 275.636C376.308 275.636 376.681 275.335 376.792 275.066Z" stroke="#C5C5C5"/>
<path d="M362.255 190C362.255 190 375.609 202.068 349.589 220.624C333.454 232.135 339.427 239.82 345.161 247.197C346.843 249.36 348.503 251.496 349.58 253.695C337.401 243.768 328.463 235.029 334.459 226.896C337.387 222.924 342.04 219.632 346.748 216.302C356.19 209.624 365.85 202.791 362.255 190Z" fill="#E76F00"/>
<path d="M362.255 190C362.255 190 375.609 202.068 349.589 220.624C333.454 232.135 339.427 239.82 345.161 247.197C346.843 249.36 348.503 251.496 349.58 253.695C337.401 243.768 328.463 235.029 334.459 226.896C337.387 222.924 342.04 219.632 346.748 216.302C356.19 209.624 365.85 202.791 362.255 190Z" stroke="#C5C5C5"/>
<path d="M337.259 305.738C360.404 307.077 395.947 304.995 396.789 295.102C396.789 295.102 395.171 298.853 377.66 301.831C357.905 305.19 333.54 304.797 319.089 302.645C319.089 302.645 319.089 302.645 319.089 302.645C319.134 302.677 322.16 304.863 337.259 305.738Z" fill="#5382A1"/>
<path d="M337.259 305.738C360.404 307.077 395.947 304.995 396.789 295.102C396.789 295.102 395.171 298.853 377.66 301.831C357.905 305.19 333.54 304.797 319.089 302.645C319.089 302.645 319.089 302.645 319.089 302.645C319.134 302.677 322.16 304.863 337.259 305.738Z" stroke="#C5C5C5"/>
<rect x="141.932" y="231.296" width="75.0991" height="75.0991" rx="10" fill="#5B3791"/>
<rect x="141.932" y="231.296" width="75.0991" height="75.0991" rx="10" stroke="#C5C5C5"/>
<path d="M194.281 262.671V265.791H197.343V262.671H198.874V265.791H201.937V267.351H198.874V270.471H201.937V272.031H198.874V275.152H197.343V272.031H194.281V275.152H192.75V272.031H189.688V270.471H192.75V267.351H189.688V265.791H192.75V262.671H194.281ZM197.343 267.351H194.281V270.471H197.343V267.351Z" fill="white"/>
<path d="M194.281 262.671V265.791H197.343V262.671H198.874V265.791H201.937V267.351H198.874V270.471H201.937V272.031H198.874V275.152H197.343V272.031H194.281V275.152H192.75V272.031H189.688V270.471H192.75V267.351H189.688V265.791H192.75V262.671H194.281ZM197.343 267.351H194.281V270.471H197.343V267.351Z" stroke="#C5C5C5"/>
<path d="M186.915 274.452L196.298 279.99C192.604 286.505 185.726 290.911 177.832 290.999L177.591 291C169.579 291 162.585 286.553 158.86 279.948C157.041 276.724 156 272.986 156 269C156 256.85 165.666 247 177.591 247L177.591 247C185.578 247 192.552 251.42 196.287 257.99L196.251 257.927L186.853 263.44C185.002 260.246 181.607 258.09 177.714 258.046L177.591 258.045C171.653 258.045 166.84 262.95 166.84 269C166.838 270.907 167.327 272.781 168.258 274.435C170.111 277.732 173.595 279.955 177.591 279.955C181.58 279.955 185.06 277.739 186.915 274.452ZM186.915 274.452C186.93 274.425 186.945 274.398 186.959 274.372L186.915 274.451L186.915 274.452Z" fill="white"/>
<path d="M186.915 274.452L196.298 279.99C192.604 286.505 185.726 290.911 177.832 290.999L177.591 291C169.579 291 162.585 286.553 158.86 279.948C157.041 276.724 156 272.986 156 269C156 256.85 165.666 247 177.591 247L177.591 247C185.578 247 192.552 251.42 196.287 257.99L196.251 257.927L186.853 263.44C185.002 260.246 181.607 258.09 177.714 258.046L177.591 258.045C171.653 258.045 166.84 262.95 166.84 269C166.838 270.907 167.327 272.781 168.258 274.435C170.111 277.732 173.595 279.955 177.591 279.955C181.58 279.955 185.06 277.739 186.915 274.452ZM186.915 274.452C186.93 274.425 186.945 274.398 186.959 274.372L186.915 274.451L186.915 274.452Z" stroke="#C5C5C5"/>
</svg>
